<svg width="28" height="28" fill="none" xmlns="http://www.w3.org/2000/svg"><path d="M8.4.667h11.2A7.739 7.739 0 0 1 27.334 8.4v11.2a7.733 7.733 0 0 1-7.734 7.733H8.4A7.739 7.739 0 0 1 .667 19.6V8.4A7.733 7.733 0 0 1 8.4.667Zm-.266 2.666a4.8 4.8 0 0 0-4.8 4.8v11.734c0 2.653 2.146 4.8 4.8 4.8h11.733a4.8 4.8 0 0 0 4.8-4.8V8.133c0-2.653-2.147-4.8-4.8-4.8H8.134Zm12.866 2a1.666 1.666 0 1 1 0 3.333 1.666 1.666 0 0 1 0-3.333Zm-7 2a6.667 6.667 0 1 1 0 13.334 6.667 6.667 0 0 1 0-13.334ZM14 10a4 4 0 1 0 0 8 4 4 0 0 0 0-8Z" fill="#fff"/></svg>