<svg width="54" height="54" fill="none" xmlns="http://www.w3.org/2000/svg"><path fill-rule="evenodd" clip-rule="evenodd" d="M45.132 7.274a3.52 3.52 0 0 1 3.532.476 3.495 3.495 0 0 1 1.29 3.312L44.65 43.11c-.515 3.091-3.92 4.864-6.765 3.324-2.38-1.288-5.916-3.273-9.097-5.344-1.59-1.037-6.461-4.357-5.862-6.719.514-2.02 8.699-9.61 13.376-14.122 1.835-1.773.998-2.796-1.17-1.165-5.385 4.049-14.026 10.206-16.883 11.94-2.521 1.528-3.835 1.789-5.407 1.528-2.867-.476-5.525-1.212-7.696-2.109-2.932-1.211-2.79-5.227-.002-6.397L45.132 7.274Z" fill="#fff"/></svg>