<svg width="31" height="30" fill="none" xmlns="http://www.w3.org/2000/svg"><path d="M15.502 2.5c6.904 0 12.5 5.596 12.5 12.5s-5.596 12.5-12.5 12.5c-2.21.004-4.38-.581-6.288-1.694L3.007 27.5l1.69-6.21A12.441 12.441 0 0 1 3.002 15c0-6.904 5.596-12.5 12.5-12.5Zm-4.26 6.625-.25.01a1.2 1.2 0 0 0-.465.125c-.136.077-.26.173-.367.285-.15.141-.236.264-.327.383a3.412 3.412 0 0 0-.707 2.097c.002.612.162 1.209.412 1.766.511 1.128 1.353 2.322 2.463 3.428.267.266.53.534.812.782a11.811 11.811 0 0 0 4.8 2.558l.71.108c.232.013.463-.005.695-.016.364-.018.72-.117 1.041-.288a6.34 6.34 0 0 0 .48-.276s.053-.035.155-.112c.17-.125.273-.214.413-.36.104-.107.194-.234.262-.377.098-.204.195-.593.236-.917.03-.247.02-.382.017-.466-.005-.134-.116-.273-.238-.331l-.727-.326s-1.087-.474-1.753-.777a.621.621 0 0 0-.22-.051.602.602 0 0 0-.472.159c-.006-.003-.09.069-.994 1.163a.437.437 0 0 1-.46.163 1.78 1.78 0 0 1-.238-.082l-.316-.136a7.535 7.535 0 0 1-1.968-1.253c-.158-.138-.304-.288-.454-.433a7.87 7.87 0 0 1-1.275-1.585l-.074-.118a1.154 1.154 0 0 1-.127-.257c-.048-.184.076-.331.076-.331s.304-.332.445-.512c.137-.175.254-.345.329-.467.147-.237.194-.481.116-.67a103.91 103.91 0 0 0-1.085-2.551c-.074-.168-.292-.288-.491-.311a4.646 4.646 0 0 0-.203-.02 4.23 4.23 0 0 0-.504.005l.252-.01.001.001Z" fill="#fff"/></svg>