<svg width="28" height="32" fill="none" xmlns="http://www.w3.org/2000/svg"><path d="M17.626 22.214v3.768c0 .798-.232 1.197-.697 1.197-.273 0-.541-.131-.803-.393V21.41c.262-.262.53-.393.803-.393.465 0 .697.399.697 1.196Zm6.035.018v.822h-1.607v-.822c0-.81.268-1.214.804-1.214s.803.405.803 1.214ZM6.411 18.34h1.911v-1.678H2.751v1.678h1.875V28.5H6.41V18.34Zm5.143 10.16h1.59v-8.821h-1.59v6.75c-.357.5-.696.75-1.018.75-.214 0-.339-.125-.375-.375-.011-.036-.017-.244-.017-.625v-6.5h-1.59v6.982c0 .583.048 1.018.143 1.303.143.44.488.661 1.036.661.571 0 1.178-.363 1.821-1.09v.965Zm7.661-2.643V22.34c0-.869-.054-1.458-.16-1.768-.203-.666-.626-1-1.269-1-.595 0-1.148.322-1.66.965V16.66h-1.59V28.5h1.59v-.857c.535.655 1.089.982 1.66.982.643 0 1.066-.327 1.268-.982.107-.322.161-.917.161-1.786Zm6.036-.178v-.233h-1.625c0 .608-.012.97-.036 1.09-.083.428-.321.643-.714.643-.548 0-.822-.411-.822-1.233v-1.553h3.197v-1.84c0-.94-.161-1.63-.482-2.07-.465-.608-1.096-.912-1.893-.912-.81 0-1.447.304-1.911.911-.333.44-.5 1.131-.5 2.072v3.089c0 .94.173 1.63.518 2.071.464.607 1.107.911 1.928.911.858 0 1.5-.316 1.929-.946a2.17 2.17 0 0 0 .375-.965c.024-.107.036-.452.036-1.035ZM14.394 9.375v-3.75c0-.821-.256-1.232-.768-1.232s-.768.41-.768 1.232v3.75c0 .833.256 1.25.768 1.25s.768-.417.768-1.25Zm12.839 13.41c0 2.786-.155 4.87-.464 6.25a3.392 3.392 0 0 1-1.036 1.769 3.122 3.122 0 0 1-1.822.821c-2.19.25-5.494.375-9.91.375-4.417 0-7.72-.125-9.911-.375a3.165 3.165 0 0 1-1.83-.821 3.264 3.264 0 0 1-1.027-1.768c-.31-1.334-.464-3.417-.464-6.25 0-2.786.154-4.87.464-6.25a3.39 3.39 0 0 1 1.036-1.768 3.238 3.238 0 0 1 1.839-.84c2.178-.238 5.476-.357 9.893-.357 4.416 0 7.72.12 9.91.358.69.083 1.301.363 1.83.839.53.476.873 1.065 1.028 1.768.31 1.333.464 3.416.464 6.25ZM9.41 0h1.822l-2.16 7.125v4.84H7.285v-4.84c-.166-.881-.53-2.143-1.089-3.786A154.18 154.18 0 0 1 5.037 0h1.892l1.268 4.696L9.411 0Zm6.608 5.946v3.125c0 .965-.167 1.667-.5 2.108-.453.607-1.084.91-1.893.91-.798 0-1.423-.303-1.875-.91-.334-.453-.5-1.155-.5-2.108V5.946c0-.952.166-1.648.5-2.089.452-.607 1.077-.91 1.875-.91.81 0 1.44.303 1.893.91.333.44.5 1.137.5 2.09ZM22 3.054v8.91h-1.625v-.982c-.631.738-1.244 1.107-1.84 1.107-.547 0-.898-.22-1.053-.66-.095-.286-.143-.733-.143-1.34V3.054h1.625v6.553c0 .393.006.601.018.625.036.262.16.393.375.393.321 0 .66-.256 1.018-.768V3.054H22Z" fill="#fff"/></svg>