<svg width="82" height="69" viewBox="0 0 82 69" fill="none" xmlns="http://www.w3.org/2000/svg">
<path fill-rule="evenodd" clip-rule="evenodd" d="M82 0H0V60H34.9182L41.5 69L48.0818 60H82V0Z" fill="#1A1A1A"/>
<path fill-rule="evenodd" clip-rule="evenodd" d="M10 10H71.6698V10.6742H10.661V49.663H10V10Z" fill="white" fill-opacity="0.2"/>
<path fill-rule="evenodd" clip-rule="evenodd" d="M72 50L10.3302 50L10.3302 49.3258L71.339 49.3258L71.339 10.337L72 10.337L72 50Z" fill="white"/>
<path d="M61.4117 36.2564H60.8392L58.5165 31.4849H52.0063L49.7327 36.2564H49.1602L55.2777 23.4434L61.4117 36.2564ZM58.3202 31.0011L55.245 24.6446L52.2353 31.0011H58.3202Z" fill="white"/>
<path d="M37.8516 23.7437H38.3913V31.0011H46.7989V23.7437H47.3387V36.2564H46.7989V31.4849H38.3913V36.2564H37.8516V23.7437Z" fill="white"/>
<path d="M36.5601 23.7437L30.4098 36.2564H29.821L31.2931 33.2367L26.4023 23.7437H26.9912L31.6039 32.6694L35.9713 23.7437H36.5601Z" fill="white"/>
<path d="M21.1914 23.7437H21.7312C23.018 23.7437 24.0212 24.094 24.7409 24.7947C25.4606 25.4843 25.8205 26.413 25.8205 27.5809C25.8205 28.3928 25.646 29.1158 25.2971 29.7498C24.9481 30.3726 24.4737 30.8565 23.874 31.2013C23.2742 31.5349 22.6036 31.7018 21.862 31.7018H21.7312V36.2564H21.1914V23.7437ZM21.8948 31.218C22.8871 31.218 23.6995 30.9065 24.332 30.2837C24.9645 29.6497 25.2807 28.7599 25.2807 27.6143C25.2807 26.5243 24.9808 25.6901 24.3811 25.1117C23.7922 24.5222 22.9525 24.2275 21.862 24.2275H21.7312V31.218H21.8948Z" fill="white"/>
</svg>
